# xmcd
#
# Track frame offsets:
#	150
#	21543
#	37468
#	51100
#	63953
#	75824
#	92916
#	114074
#	129766
#
# Disc length: 1912 seconds
#
# Revision: 0
# Processed by: cddbd v1.5.2PL0 Copyright (c) Steve Scherf et al.
# Submitted via: dBpowerAMP V4.0
#
DISCID=6a077609
DTITLE=Willie Nelson - Half Nelson
DYEAR=1985
DGENRE=Country
TTITLE0=Poncho and Lefty
TTITLE1=Slow Movin' Outlaw
TTITLE2=Are There Any More Real Cowboys
TTITLE3=I Told a Lie to My Heart
TTITLE4=Texas on a Saturday Night
TTITLE5=Seven Spanish Angels
TTITLE6=They All Went to Mexico
TTITLE7=Honky Tonk Women
TTITLE8=Half a Man
EXTD=Missing one Track, "To All The Girls I've Loved Before"
EXTT0=
EXTT1=
EXTT2=
EXTT3=
EXTT4=
EXTT5=
EXTT6=
EXTT7=
EXTT8=
PLAYORDER=
